PathFileType	4	(X/Y/Z)	G:\Shared drives\HIT\Data\HapticPilot\Subject1\Edited\RHJC1.trc
DataRate	CameraRate	NumFrames	NumMarkers	Units	OrigDataRate	OrigDataStartFrame	OrigNumFrames
50.00	50.00	       4	38	mm	50.00	1	       571
Frame#	Time	r_knee			r_shank(antsup)			r_ankle			r_calc			r_5meta			r_toe			L_knee			L_shank(ant_sup)			L_ankle			L_calc			L_5meta			L_toe			r_mknee			r_mankle			L_mknee			L_mankle			r_sh2			r_sh3			r_sh4			L_sh2			L_sh3			r_thigh1			r_thigh2			r_thigh3			r_thigh4			r_thigh5			L_thigh1			L_thigh2			L_thigh3			L_thigh4			r.ASIS			r.PSIS			L.ASIS			L.PSIS			C7			R_Shoulder			L_Shoulder			Sternum			
		X1	Y1	Z1	X2	Y2	Z2	X3	Y3	Z3	X4	Y4	Z4	X5	Y5	Z5	X6	Y6	Z6	X7	Y7	Z7	X8	Y8	Z8	X9	Y9	Z9	X10	Y10	Z10	X11	Y11	Z11	X12	Y12	Z12	X13	Y13	Z13	X14	Y14	Z14	X15	Y15	Z15	X16	Y16	Z16	X17	Y17	Z17	X18	Y18	Z18	X19	Y19	Z19	X20	Y20	Z20	X21	Y21	Z21	X22	Y22	Z22	X23	Y23	Z23	X24	Y24	Z24	X25	Y25	Z25	X26	Y26	Z26	X27	Y27	Z27	X28	Y28	Z28	X29	Y29	Z29	X30	Y30	Z30	X31	Y31	Z31	X32	Y32	Z32	X33	Y33	Z33	X34	Y34	Z34	X35	Y35	Z35	X36	Y36	Z36	X37	Y37	Z37	X38	Y38	Z38	

1	0.000	775.36896	565.22711	574.23169	782.79364	557.78558	488.74426	711.20575	570.67828	115.18472	626.17535	622.94910	72.25220	816.75616	529.55853	39.60248	863.71649	587.50879	72.74200	803.96179	853.24530	559.89313	826.82263	843.09668	440.36661	700.76917	808.09802	113.99848	622.28912	754.21667	75.07455	814.03510	849.49951	41.61314	860.71399	793.34778	68.81149	778.77051	691.13385	554.04828	732.70203	664.85297	120.30053	839.27777	730.73480	560.43286	731.99963	718.55499	123.71334	773.34131	557.76831	369.02347	707.05945	552.34674	492.25427	690.48468	550.79614	377.14047	741.00824	861.66138	468.28210	715.86603	850.65179	349.26068	857.97833	552.85822	897.93677	854.84387	551.83002	782.14233	811.49323	536.56097	750.65979	745.08893	534.47137	892.76520	749.70593	545.75922	774.26404	857.24542	901.54858	832.18121	875.36267	887.08112	695.78424	742.18292	901.44409	818.40936	763.30194	877.40167	686.71460	884.64014	612.40948	1091.76855	686.98413	685.34937	1124.71619	863.97595	867.31232	1085.68774	683.71497	767.43909	1121.35498	758.17426	764.99146	1612.10535	808.85620	606.22040	1581.91528	795.90918	947.13879	1578.79883	892.59381	772.24976	1527.77893	
2	0.020	776.29108	566.50378	574.60669	784.05304	558.66821	488.78470	711.23407	570.73767	115.34219	626.18713	623.00128	72.33877	816.70990	529.62701	39.62315	863.65979	587.53021	72.81348	801.44952	854.38843	560.33978	824.58533	844.24500	440.70825	700.65698	808.23358	113.76946	622.23645	754.24695	74.92907	814.06488	849.57410	41.54338	860.70490	793.42108	68.71188	780.05359	692.26514	553.82825	732.85986	664.89355	120.35982	837.87744	731.64197	561.31378	731.70782	718.72729	123.64904	774.23077	558.43512	369.05530	708.44421	553.57031	492.61752	691.46320	551.67889	377.68085	738.46283	862.66583	468.05078	713.22382	850.61572	348.29486	857.88159	554.28174	898.29926	855.30701	553.02704	782.55060	811.82129	537.58136	750.92596	745.00494	536.12494	892.81177	750.09229	547.59381	774.53198	856.12695	902.91504	832.45587	873.70673	888.10260	695.87238	740.63727	903.30890	818.84369	761.83301	878.35938	687.09418	884.67126	614.48047	1092.05664	686.87347	686.77179	1124.97754	863.71808	869.40704	1086.11145	684.07385	768.65961	1121.31995	758.14618	766.78015	1612.41187	808.91650	607.88989	1581.93213	795.54797	948.90472	1578.73389	892.36383	774.09894	1527.68237	
3	0.040	777.90308	567.57874	574.87659	785.75574	559.49792	488.78568	711.22699	570.72400	115.51201	626.16125	623.03149	72.36478	816.65253	529.68170	39.69039	863.51672	587.56555	72.95486	798.72058	855.63574	560.84528	822.04077	845.55493	441.14459	700.46356	808.53613	113.57150	622.18768	754.34515	74.85351	814.00208	849.63971	41.45266	860.66156	793.58148	68.60869	782.81641	693.42999	553.66150	732.91266	664.95142	120.50954	834.35999	732.90021	561.63586	731.58838	719.12024	123.72199	775.33911	558.92273	369.14462	710.14728	554.76807	492.98032	692.60010	552.61847	378.14996	735.65094	863.66901	467.85400	712.79248	851.48285	347.51501	857.84009	555.63745	898.70746	855.61957	554.30725	782.92908	812.10199	538.96136	751.16541	744.84601	537.72717	892.92285	750.43799	549.15363	774.65356	854.95026	904.30701	832.82062	871.61676	889.50159	696.35016	739.58777	904.78278	819.90601	759.77637	879.95844	688.25378	884.38361	616.29462	1092.33191	686.58502	688.36505	1125.25012	862.97040	871.32733	1086.36218	683.79663	770.13007	1121.68530	758.29968	768.31982	1612.79065	808.92242	609.56445	1582.00281	795.11481	950.48682	1578.68506	892.24615	775.88812	1527.72180	
4	0.060	780.06726	568.57074	575.00720	788.11743	560.44476	488.65674	711.13544	570.81256	115.64913	626.11700	623.05176	72.33949	816.62787	529.73730	39.76411	863.37762	587.59802	73.11020	795.71735	856.97406	561.48480	819.35919	846.85931	441.54535	700.31848	808.86493	113.40770	622.14374	754.46893	74.70779	814.02808	849.74133	41.40583	860.63177	793.71167	68.54989	785.55737	694.66260	553.58325	732.90149	664.97736	120.58481	829.80164	734.49158	562.01788	731.33972	719.49603	123.77830	776.79535	559.46045	368.96008	712.53693	555.92072	493.31873	694.26648	553.49731	378.47223	733.02954	865.13080	467.85538	709.77991	852.73718	348.17813	857.50922	556.57660	898.97882	855.51831	555.66882	783.16956	812.39905	540.26746	751.25970	744.65863	539.06329	892.79651	750.64502	550.23840	774.40906	853.75189	905.65930	833.34528	869.71802	890.78705	696.66217	738.02307	906.38513	821.08356	757.44952	881.43311	689.12830	883.92017	617.83636	1092.53894	686.25385	689.57721	1125.55542	861.86993	872.91382	1086.47217	682.47955	771.54974	1122.31799	758.63403	769.77051	1613.14319	808.91168	611.03296	1582.13660	794.82849	951.99493	1578.78638	892.11371	777.53235	1527.82727	
